HIERARCHY
ROOT Hips
{
	OFFSET 0.000000 0.000000 0.000000
	CHANNELS 6 Xposition Yposition Zposition Yrotation Xrotation Zrotation
	JOINT Chest
	{
		OFFSET 0.000000 -0.009281 11.569106
		CHANNELS 3 Yrotation Xrotation Zrotation
		JOINT Chest2
		{
			OFFSET -0.000000 0.016865 9.269641
			CHANNELS 3 Yrotation Xrotation Zrotation
			JOINT Chest3
			{
				OFFSET -0.000000 0.000001 8.374491
				CHANNELS 3 Yrotation Xrotation Zrotation
				JOINT Chest4
				{
					OFFSET -0.000000 0.000001 8.374493
					CHANNELS 3 Yrotation Xrotation Zrotation
					JOINT Neck
					{
						OFFSET -0.000000 0.000002 12.152554
						CHANNELS 3 Yrotation Xrotation Zrotation
						JOINT Head
						{
							OFFSET -0.000000 0.040101 7.802319
							CHANNELS 3 Yrotation Xrotation Zrotation
							End Site
							{
								OFFSET -0.000000 0.020947 14.853096
							}
						}
					}
					JOINT RightCollar
					{
						OFFSET 2.894404 0.000001 6.791374
						CHANNELS 3 Yrotation Xrotation Zrotation
						JOINT RightShoulder
						{
							OFFSET 13.574684 0.000001 0.000000
							CHANNELS 3 Yrotation Xrotation Zrotation
							JOINT RightElbow
							{
								OFFSET 23.923903 0.000002 0.000000
								CHANNELS 3 Yrotation Xrotation Zrotation
								JOINT RightWrist
								{
									OFFSET 19.846718 0.012767 0.000000
									CHANNELS 3 Yrotation Xrotation Zrotation
									End Site
									{
										OFFSET 14.973145 0.000001 0.000000
									}
								}
							}
						}
					}
					JOINT LeftCollar
					{
						OFFSET -2.894404 0.000001 6.791374
						CHANNELS 3 Yrotation Xrotation Zrotation
						JOINT LeftShoulder
						{
							OFFSET -13.574684 -0.000001 0.000000
							CHANNELS 3 Yrotation Xrotation Zrotation
							JOINT LeftElbow
							{
								OFFSET -23.923903 -0.000002 0.000000
								CHANNELS 3 Yrotation Xrotation Zrotation
								JOINT LeftWrist
								{
									OFFSET -19.846718 0.012763 0.000000
									CHANNELS 3 Yrotation Xrotation Zrotation
									End Site
									{
										OFFSET -14.973145 -0.000001 0.000000
									}
								}
							}
						}
					}
				}
			}
		}
	}
	JOINT RightHip
	{
		OFFSET 9.469263 0.004643 0.045487
		CHANNELS 3 Yrotation Xrotation Zrotation
		JOINT RightKnee
		{
			OFFSET 0.000000 0.002661 -40.478676
			CHANNELS 3 Yrotation Xrotation Zrotation
			JOINT RightAnkle
			{
				OFFSET 0.000000 0.049106 -35.224068
				CHANNELS 3 Yrotation Xrotation Zrotation
				JOINT RightToe
				{
					OFFSET -0.000001 12.539529 -6.151390
					CHANNELS 3 Yrotation Xrotation Zrotation
					End Site
					{
						OFFSET -0.000001 5.044994 -1.291870
					}
				}
			}
		}
	}
	JOINT LeftHip
	{
		OFFSET -9.469263 0.004641 0.045487
		CHANNELS 3 Yrotation Xrotation Zrotation
		JOINT LeftKnee
		{
			OFFSET 0.000000 0.002661 -40.478676
			CHANNELS 3 Yrotation Xrotation Zrotation
			JOINT LeftAnkle
			{
				OFFSET 0.000000 0.049106 -35.224068
				CHANNELS 3 Yrotation Xrotation Zrotation
				JOINT LeftToe
				{
					OFFSET -0.000001 12.539529 -6.151390
					CHANNELS 3 Yrotation Xrotation Zrotation
					End Site
					{
						OFFSET -0.000001 5.044994 -1.291870
					}
				}
			}
		}
	}
}
MOTION
Frames: 9
Frame Time: 0.016667
-104.488457 1.433051 83.294098 -5.097635 -14.283858 -120.785298 -1.128089 -3.959922 0.899724 1.027257 -0.726763 -0.044078 1.027257 -0.726763 -0.044084 0.770380 -0.545149 -0.031837 5.655532 -21.926014 -2.786357 9.445705 -4.516752 -3.452957 10.165341 -0.214847 -2.623721 55.359810 -10.010539 -16.654337 -7.991980 -34.857717 -13.155593 -0.473645 -4.367395 1.875775 -7.892892 -4.003754 -3.186748 -84.088276 2.439378 -15.227101 -12.182505 18.501570 -25.458195 7.355077 9.208922 -23.101298 9.719694 2.733706 5.377144 2.835943 -8.564768 -3.666253 5.017296 -4.545065 2.739772 0.107692 3.898418 0.310731 1.789184 -10.277509 -7.849997 1.469583 -40.511361 10.859809 9.291664 -28.301094 -16.890689 17.759474 65.713352 16.134459 
-103.346901 0.285097 82.962128 -5.174791 -14.739065 -119.775632 -1.317838 -4.469871 1.184583 1.155479 -0.691942 -0.032161 1.155482 -0.691943 -0.032161 0.866563 -0.519021 -0.022812 6.121089 -21.673158 -3.071703 10.208037 -4.041756 -3.823726 10.261665 -0.172425 -2.511394 54.865164 -11.727834 -15.072829 -8.051266 -34.957970 -12.653376 -0.998940 -4.149448 2.334276 -7.919504 -3.536498 -3.296236 -84.270191 1.649579 -14.389911 -12.331083 20.117352 -24.830535 8.420894 9.656712 -23.721240 10.221501 1.055036 2.306113 3.189158 -8.371579 -2.516308 3.780587 -3.089639 4.104971 0.221961 3.312007 -0.608647 2.754601 -7.229263 -6.988482 3.128318 -44.364640 7.998671 11.259412 -32.851181 -14.924580 12.361089 71.841207 12.729530 
-102.288231 -0.883454 82.591858 -3.981931 -15.760532 -118.030600 -0.238185 -4.189630 0.341651 1.291248 -0.723114 -0.025447 1.291249 -0.723114 -0.025444 0.968393 -0.542392 -0.017557 6.549496 -21.348615 -3.323309 10.912995 -3.434668 -4.137577 10.402011 0.211100 -2.195011 54.255290 -13.103629 -13.357046 -8.250677 -35.174364 -12.223799 -1.902092 -3.901420 2.972152 -8.048048 -2.892708 -3.074713 -84.189076 0.429244 -13.575949 -12.351262 21.836504 -23.800412 9.287546 10.328055 -24.532144 11.556663 0.994972 0.201872 3.665795 -9.098265 -2.149079 3.015867 -1.696349 4.050117 0.362074 3.294496 -0.879091 4.762559 -3.610739 -7.018345 5.176064 -47.193718 5.360490 14.197235 -33.169174 -11.720121 -7.648768 73.279481 -3.566545 
-101.340492 -1.661925 82.211052 -2.104352 -16.484026 -116.702893 0.950994 -3.122177 -0.296121 1.388425 -0.828560 -0.009201 1.388424 -0.828560 -0.009206 1.041287 -0.621446 -0.005022 7.004709 -20.953087 -3.568328 11.669125 -2.696908 -4.424659 10.422883 0.073053 -1.988265 53.604971 -13.627174 -10.537177 -8.540726 -35.682821 -11.895458 -3.088930 -3.951065 3.542168 -8.073134 -2.443218 -2.870842 -84.225829 -0.394117 -13.160350 -11.771402 23.009138 -22.020390 9.854511 11.556598 -25.468134 12.967321 1.955472 -0.009286 4.473104 -10.078123 -2.131644 2.319961 -0.060186 3.132022 0.313396 3.173580 -1.149067 6.259891 0.887774 -6.281208 7.327042 -49.143559 3.058313 17.914401 -31.672301 -9.520301 -24.084951 70.513739 -16.310205 
-100.330368 -2.460494 81.858047 -0.982460 -17.098033 -115.664295 1.787735 -2.615510 -0.378103 1.427024 -0.959315 0.003847 1.427024 -0.959315 0.003844 1.070247 -0.719481 0.005123 7.504840 -20.536796 -3.839481 12.499925 -1.920104 -4.741264 10.324327 -0.455344 -2.042611 53.093195 -13.529807 -6.887941 -8.954782 -36.447115 -11.544977 -4.390712 -4.396149 3.979820 -8.073940 -1.978407 -2.884031 -84.455316 -0.565462 -12.654753 -10.576246 23.587107 -19.727700 10.329538 12.958274 -26.327060 13.932615 2.162731 0.577768 5.365831 -10.586477 -2.839810 1.266996 1.457563 1.852199 0.623039 2.858234 -0.670958 7.020779 4.979948 -5.627411 8.841685 -50.321695 1.577079 20.520412 -30.164410 -8.724550 -29.578083 66.823716 -19.449565 
-99.173027 -3.326223 81.543892 -0.570842 -17.894658 -114.176106 2.639455 -2.693476 -0.724675 1.433522 -1.040530 -0.031618 1.433521 -1.040531 -0.031621 1.075059 -0.780478 -0.021273 7.951079 -20.211360 -4.086600 13.239908 -1.311833 -5.033562 10.159727 -1.112736 -2.225346 52.758454 -13.366879 -2.938772 -9.368408 -37.243505 -11.196241 -5.670680 -4.931254 4.407087 -8.041274 -2.052938 -2.940223 -84.826162 -0.391824 -12.277736 -9.208847 24.116283 -17.448760 11.157682 13.751446 -26.913882 15.065492 1.454216 0.285981 5.780626 -10.697872 -3.862124 0.330803 2.641497 1.495533 0.870155 2.767030 -0.354655 7.634936 8.527809 -6.369752 8.657197 -51.233734 2.003299 21.902079 -27.767569 -8.800937 -28.746542 62.484708 -17.536420 
-97.941917 -4.313154 81.258041 -0.465551 -18.630331 -112.939241 3.388076 -2.980463 -0.754401 1.422286 -1.077093 -0.077096 1.422285 -1.077095 -0.077096 1.066547 -0.808005 -0.055313 8.317698 -19.961243 -4.319205 13.838959 -0.841761 -5.326967 10.129270 -1.382986 -2.358126 52.577546 -13.443511 0.730783 -9.644667 -37.808106 -10.937407 -7.015023 -5.112861 5.061618 -8.007057 -2.348943 -2.980357 -85.140651 -0.310461 -11.752661 -7.966558 24.937625 -15.401665 12.443794 13.585852 -27.168273 16.185480 0.294186 -0.653619 5.767238 -10.597200 -3.922736 -0.493174 3.843104 1.029478 1.123197 2.522770 -0.000483 8.120428 11.811866 -7.782164 6.752562 -51.672867 4.160561 22.746323 -25.422616 -9.206617 -26.316826 57.860015 -14.795619 
-96.683914 -5.220682 80.991600 -0.465818 -19.115056 -112.163495 3.896053 -3.279715 -0.360938 1.411761 -1.099605 -0.082203 1.411760 -1.099605 -0.082204 1.058640 -0.824899 -0.059108 8.590112 -19.747919 -4.555810 14.264564 -0.436489 -5.657898 10.307777 -1.158504 -2.328227 52.423700 -13.787064 3.965539 -9.698472 -37.956727 -10.776419 -8.473480 -4.720865 6.054041 -8.057955 -2.330148 -2.885194 -85.353220 -0.347077 -10.781377 -6.697975 25.747406 -13.340733 13.859031 12.712117 -27.217814 16.928351 -0.899266 -1.704323 5.839326 -10.586921 -3.054044 -1.205582 4.965997 0.568434 1.165705 2.306723 0.059642 8.289433 14.944037 -9.259757 3.922947 -51.453027 6.706042 22.697309 -23.617409 -8.596022 -23.748476 52.782592 -12.167317 
-95.363304 -6.056921 80.754822 -0.695129 -19.463143 -111.696611 4.256212 -3.727401 0.262553 1.404185 -1.122715 -0.037365 1.404183 -1.122714 -0.037362 1.053037 -0.842128 -0.025442 8.738452 -19.561640 -4.781312 14.466489 -0.078351 -6.008222 10.508781 -0.972583 -2.149052 52.309243 -14.069230 7.158779 -9.613135 -37.533942 -10.471336 -9.808528 -3.962796 6.770085 -8.208643 -2.084149 -2.651542 -85.506899 -0.114317 -9.640040 -5.078310 26.028236 -10.839713 14.936980 11.688217 -27.193978 17.298690 -2.286938 -2.574361 6.015042 -10.634658 -2.079026 -1.756165 6.005663 0.305327 1.087759 2.146671 -0.015609 8.187356 17.579314 -10.279979 1.328264 -50.514805 8.593827 21.839557 -22.276237 -6.782438 -21.429857 47.325438 -9.867511 
